<svg
    xmlns="http://www.w3.org/2000/svg"
    xmlns:xlink="http://www.w3.org/1999/xlink"
    viewBox="0 0 1231.531 716.48"
>
    <defs>
        <linearGradient
            id="a"
            x1="621.778"
            y1="10.275"
            x2="609.892"
            y2="706.776"
            gradientUnits="userSpaceOnUse"
        >
            <stop
                offset="0"
                stop-color="#33e0ff"
            />
            <stop
                offset="1"
                stop-color="#5850ec"
            />
        </linearGradient>
        <linearGradient
            id="c"
            x1="895.852"
            y1="46.187"
            x2="376.052"
            y2="537.461"
            gradientUnits="userSpaceOnUse"
        >
            <stop
                offset="0"
                stop-color="#fff"
            />
            <stop offset="1" />
        </linearGradient>
        <linearGradient
            id="d"
            x1="1037.401"
            y1="17.026"
            x2="1025.515"
            y2="713.527"
            xlink:href="#a"
        />
        <linearGradient
            id="e"
            x1="910.521"
            y1="165.395"
            x2="1091.184"
            y2="258.895"
            xlink:href="#a"
        />
        <linearGradient
            id="b"
            x1="1279.967"
            y1="249.73"
            x2="1056.516"
            y2="219.62"
            gradientUnits="userSpaceOnUse"
        >
            <stop offset="0" />
            <stop
                offset="1"
                stop-color="#fff"
            />
        </linearGradient>
        <linearGradient
            id="f"
            x1="209.459"
            y1="3.58"
            x2="197.574"
            y2="700.081"
            xlink:href="#a"
        />
        <linearGradient
            id="g"
            x1="313.738"
            y1="548.53"
            x2="147.338"
            y2="461.369"
            xlink:href="#a"
        />
        <linearGradient
            id="h"
            x1="-48.875"
            y1="435.113"
            x2="179.33"
            y2="492.164"
            xlink:href="#b"
        />
    </defs>
    <g style="isolation: isolate">
        <path
            d="M863.156 357.044a313.5 313.5 0 01-300.8 117.846l-.1.577a185.869 185.869 0 00-211.715 240.857.484.484 0 00.042.113.108.108 0 01.014.042c-68.386-109.812-62.434-252.804 17.884-356.804a313.51 313.51 0 0126.75-30.465c74.564-74.563 177.397-103.705 274.052-87.382v-.675a185.437 185.437 0 00166.815-51.037 87.743 87.743 0 001.59-1.632A185.635 185.635 0 00880.9.07a.247.247 0 01-.014-.07c68.625 109.854 62.673 252.945-17.73 357.044z"
            style="fill: url(#a)"
        />
        <path
            d="M900.6 182.293c-11.677 82.953-104.596 190.03-327.254 190.03-295.753 0-251.526 284.665-222.805 344.002a.484.484 0 00.042.112.108.108 0 01.014.042c-68.386-109.812-62.434-252.804 17.885-356.804a313.51 313.51 0 0126.75-30.464c74.563-74.564 177.396-103.705 274.051-87.383v-.675a185.437 185.437 0 00166.815-51.037 87.743 87.743 0 001.59-1.632A185.084 185.084 0 00889.962 45.38C888.85 30.042 887.238 24.416 880.9.07a.52.52 0 01-.014-.07c16.147 37.683 34.554 76.87 19.714 182.293z"
            style="
                fill: url(#c);
                mix-blend-mode: soft-light;
            "
        />
        <g style="mix-blend-mode: soft-light">
            <path
                d="M900.6 182.293a152.46 152.46 0 01-11.962 42.648A192.154 192.154 0 01866 263.237c-18.067 23.692-41.21 43.31-66.717 58.629a317.998 317.998 0 01-39.775 20.247 415.021 415.021 0 01-42.109 14.765l-10.783 2.859c-1.801.46-3.59.973-5.402 1.389l-5.442 1.214c-3.631.795-7.25 1.65-10.892 2.394l-10.962 2.028c-1.829.331-3.653.69-5.484.999l-5.512.819-11.025 1.637c-3.684.466-7.378.852-11.067 1.281-3.693.388-7.374.916-11.08 1.154l-11.105.86c-1.852.132-3.7.306-5.554.406l-5.562.249-11.122.497c-1.854.105-3.709.14-5.564.154l-5.564.075-22.153.301c-3.675-.004-7.337.255-11.005.393l-5.5.254-5.488.409a329.04 329.04 0 00-43.553 5.98 259.098 259.098 0 00-42.058 12.497 200.845 200.845 0 00-38.815 20.317l-4.526 3.107c-1.494 1.057-2.926 2.196-4.394 3.29-2.966 2.15-5.715 4.571-8.544 6.898a180.712 180.712 0 00-15.7 15.369c-2.54 2.65-4.801 5.543-7.19 8.33l-3.362 4.362-1.671 2.19-1.584 2.254a186.731 186.731 0 00-11.713 18.685l-2.607 4.87c-.84 1.639-1.624 3.307-2.439 4.959l-1.207 2.486-1.12 2.528c-.737 1.689-1.514 3.362-2.22 5.066-2.87 6.797-5.37 13.75-7.633 20.788 7.643-28.533 21.218-55.75 40.68-78.347a179.004 179.004 0 0115.628-15.963c2.827-2.427 5.58-4.95 8.555-7.204 1.471-1.145 2.91-2.336 4.41-3.444l4.546-3.263c.761-.539 1.51-1.098 2.282-1.62l2.346-1.525 4.7-3.042 4.83-2.828c1.618-.928 3.205-1.916 4.876-2.748 3.315-1.71 6.578-3.534 9.99-5.048l5.07-2.371c1.708-.75 3.44-1.441 5.16-2.164a250.177 250.177 0 0142.675-13.25 334.142 334.142 0 0144.173-6.472l5.563-.463c1.856-.117 3.714-.185 5.571-.28 3.716-.152 7.43-.423 11.147-.43l22.182-.368 5.519-.091c1.84-.02 3.679-.06 5.515-.168l11.023-.527 5.512-.263c1.836-.104 3.666-.282 5.5-.419l10.996-.877c3.673-.223 7.315-.737 10.972-1.11 3.652-.414 7.31-.784 10.958-1.235l10.91-1.587 5.454-.794c1.812-.3 3.616-.65 5.424-.972l10.843-1.971c3.6-.725 7.177-1.56 10.767-2.334l5.38-1.183c1.79-.405 3.557-.907 5.337-1.356l10.667-2.744a409.983 409.983 0 0041.659-14.19 334.754 334.754 0 0039.425-19.465 258.271 258.271 0 0036.001-25.203 219.275 219.275 0 0030.796-31.359 190.046 190.046 0 0023.448-37.222c.395-.83.823-1.646 1.192-2.489l1.077-2.54 2.156-5.085 1.891-5.19.942-2.598c.312-.867.544-1.76.827-2.636l1.628-5.286c.498-1.774.904-3.574 1.362-5.362l.668-2.687c.212-.898.355-1.81.536-2.715z"
                style="fill: #fff"
            />
        </g>
        <path
            d="M1212.016 405.43l-257.868 257.9-.13-.129a74.224 74.224 0 11-104.952-104.985l-.55-.55 190.34-190.372a12.752 12.752 0 000-18.032l-78.138-78.138a344.766 344.766 0 00-.13-211.395l251.428 251.396a66.724 66.724 0 010 94.305z"
            style="fill: url(#d)"
        />
        <path
            d="M1092.424 252.452a147.346 147.346 0 01-51.445 112.035 12.75 12.75 0 00-2.125-15.225l-78.137-78.137a344.474 344.474 0 00-.127-211.393l82.922 82.908 10.99 11.004a147.1 147.1 0 0137.922 98.808z"
            style="fill: url(#e)"
        />
        <path
            d="M1092.424 252.452a147.346 147.346 0 01-51.445 112.035 12.75 12.75 0 00-2.125-15.225l-78.137-78.137a344.474 344.474 0 00-.127-211.393l82.922 82.908 10.99 11.004a147.1 147.1 0 0137.922 98.808z"
            style="
                fill: url(#b);
                mix-blend-mode: multiply;
            "
        />
        <path
            d="M389.804 152.158L192.7 349.26a12.752 12.752 0 000 18.033l78.266 78.267a345.1 345.1 0 00.13 211.427L19.539 405.43a66.666 66.666 0 010-94.305L284.203 46.493l.389.42A74.224 74.224 0 01389.545 151.9z"
            style="fill: url(#f)"
        />
        <path
            d="M182.807 568.703l.126-.126a147.688 147.688 0 017.177-215.6 12.76 12.76 0 002.589 14.31l78.264 78.278a345.484 345.484 0 00-11.609 163.606 340.54 340.54 0 0011.736 47.815z"
            style="fill: url(#g)"
        />
        <path
            d="M182.807 568.703l.126-.126a147.688 147.688 0 017.177-215.6 12.76 12.76 0 002.589 14.31l78.264 78.278a345.484 345.484 0 00-11.609 163.606 340.54 340.54 0 0011.736 47.815z"
            style="
                fill: url(#h);
                mix-blend-mode: multiply;
            "
        />
    </g>
</svg>