<svg fill="#1e1e35" xmlns="http://www.w3.org/2000/svg" xmlns:xlink="http://www.w3.org/1999/xlink" viewBox="0 0 1911.966 473.388">
  <defs>
    <linearGradient id="a" x1="410.818" y1="6.789" x2="402.964" y2="466.977" gradientUnits="userSpaceOnUse">
      <stop offset="0" stop-color="#33e0ff"/>
      <stop offset="1" stop-color="#5850ec"/>
    </linearGradient>
    <linearGradient id="b" x1="591.902" y1="30.517" x2="248.463" y2="355.108" gradientUnits="userSpaceOnUse">
      <stop offset="0" stop-color="#fff"/>
      <stop offset="1"/>
    </linearGradient>
    <linearGradient id="c" x1="685.426" y1="11.249" x2="677.573" y2="471.438" xlink:href="#a"/>
    <linearGradient id="d" x1="601.594" y1="109.278" x2="720.961" y2="171.056" xlink:href="#a"/>
    <linearGradient id="e" x1="845.693" y1="165" x2="698.055" y2="145.106" gradientUnits="userSpaceOnUse">
      <stop offset="0"/>
      <stop offset="1" stop-color="#fff"/>
    </linearGradient>
    <linearGradient id="f" x1="138.393" y1="2.365" x2="130.54" y2="462.553" xlink:href="#a"/>
    <linearGradient id="g" x1="207.291" y1="362.422" x2="97.348" y2="304.833" xlink:href="#a"/>
    <linearGradient id="h" x1="-32.292" y1="287.485" x2="118.486" y2="325.18" xlink:href="#e"/>
  </defs>
  <g style="isolation:isolate">
    <path d="M570.3 235.904a207.135 207.135 0 01-198.744 77.863l-.065.381a122.806 122.806 0 00-139.884 159.138.315.315 0 00.028.074.071.071 0 01.01.028c-45.184-72.554-41.252-167.03 11.816-235.746a207.041 207.041 0 01198.743-77.863v-.446a122.52 122.52 0 00110.217-33.72c.353-.353.707-.716 1.05-1.078A122.651 122.651 0 00582.023.046a.163.163 0 01-.01-.046A207.202 207.202 0 01570.3 235.904z" style="fill:url(#a)"/>
    <path d="M595.04 120.444c-7.716 54.808-69.109 125.555-216.222 125.555-195.408 0-166.187 188.082-147.21 227.287a.315.315 0 00.027.074.071.071 0 01.01.028c-45.184-72.554-41.252-167.03 11.816-235.746a207.041 207.041 0 01198.743-77.863v-.446a122.52 122.52 0 00110.217-33.72c.353-.353.707-.716 1.05-1.078a122.288 122.288 0 0034.54-94.551c-.735-10.134-1.8-13.852-5.988-29.937a.353.353 0 01-.01-.047c10.67 24.898 22.831 50.79 13.026 120.444z" style="fill:url(#b);mix-blend-mode:soft-light"/>
    <g style="mix-blend-mode:soft-light">
      <path d="M595.039 120.444a100.735 100.735 0 01-7.904 28.177 126.96 126.96 0 01-14.956 25.303c-11.962 15.636-27.27 28.558-44.092 38.718a207.203 207.203 0 01-26.269 13.397 274.236 274.236 0 01-27.821 9.755l-7.125 1.89c-1.19.303-2.372.643-3.57.917l-3.595.802c-2.399.525-4.79 1.09-7.196 1.582l-7.244 1.34-3.623.66-3.641.54-7.285 1.082c-2.434.308-4.875.563-7.312.847-2.44.256-4.872.605-7.32.762l-7.337.568c-1.223.088-2.445.202-3.67.268l-3.674.165-7.35.329c-2.448.135-4.901.095-7.352.151l-14.636.2c-2.428-.004-4.848.167-7.272.258l-3.633.169-3.626.27c-19.327 1.384-38.555 5.102-56.572 12.189-17.99 7.04-34.604 17.918-47.55 32.38-1.679 1.752-3.173 3.663-4.751 5.505l-2.221 2.882a53.307 53.307 0 00-2.151 2.936 123.344 123.344 0 00-7.74 12.346 151.368 151.368 0 00-11.38 26.888 131.415 131.415 0 0126.878-51.765c12.865-14.936 29.633-26.325 47.839-33.823 18.222-7.624 37.809-11.426 57.374-13.049l3.675-.306 3.681-.185c2.455-.1 4.909-.28 7.365-.285l14.656-.243c2.43-.063 4.863-.03 7.29-.171l7.283-.348 3.642-.174c1.213-.069 2.422-.186 3.634-.277l7.265-.579a323.246 323.246 0 0057.292-10.1 270.972 270.972 0 0027.525-9.376 224.582 224.582 0 0026.06-12.842c16.749-9.714 32.026-22.193 44.122-37.388a125.567 125.567 0 0015.492-24.593c.554-1.083 1.034-2.2 1.5-3.323l1.424-3.36 1.25-3.429c.423-1.141.834-2.287 1.168-3.458l1.076-3.492c.33-1.173.597-2.362.9-3.543l.441-1.775c.14-.594.235-1.197.354-1.795z" style="fill:#fff"/>
    </g>
    <path d="M800.796 267.874L630.42 438.272l-.085-.085a49.041 49.041 0 11-69.344-69.366l-.364-.363 125.761-125.781a8.425 8.425 0 000-11.915l-51.627-51.626a227.792 227.792 0 00-.086-139.672l166.122 166.1a44.085 44.085 0 010 62.31z" style="fill:url(#c)"/>
    <path d="M721.78 166.799a97.354 97.354 0 01-33.99 74.023 8.424 8.424 0 00-1.404-10.06l-51.627-51.626a227.6 227.6 0 00-.083-139.67l54.787 54.778 7.261 7.27A97.191 97.191 0 01721.78 166.8z" style="fill:url(#d)"/>
    <path d="M721.78 166.799a97.354 97.354 0 01-33.99 74.023 8.424 8.424 0 00-1.404-10.06l-51.627-51.626a227.6 227.6 0 00-.083-139.67l54.787 54.778 7.261 7.27A97.191 97.191 0 01721.78 166.8z" style="fill:url(#e);mix-blend-mode:multiply"/>
    <path d="M257.549 100.533L127.32 230.762a8.425 8.425 0 000 11.915l51.712 51.711a228.013 228.013 0 00.085 139.693L12.91 267.874a44.047 44.047 0 010-62.31L187.777 30.72l.257.278a49.041 49.041 0 0169.344 69.365z" style="fill:url(#f)"/>
    <path d="M120.783 375.75l.084-.084a97.58 97.58 0 014.741-142.45 8.43 8.43 0 001.71 9.456l51.71 51.72a228.268 228.268 0 00-7.67 108.097 224.991 224.991 0 007.754 31.591z" style="fill:url(#g)"/>
    <path d="M120.783 375.75l.084-.084a97.58 97.58 0 014.741-142.45 8.43 8.43 0 001.71 9.456l51.71 51.72a228.268 228.268 0 00-7.67 108.097 224.991 224.991 0 007.754 31.591z" style="fill:url(#h);mix-blend-mode:multiply"/>
    <path class="l" d="M1164.68 213.894v214.374h-37.334l-11.442-45.765c-23.485 35.528-54.196 51.786-97.553 51.786-91.53 0-148.737-77.078-148.737-201.728 0-81.293 22.282-145.124 63.229-180.652 24.087-21.076 55.4-31.313 93.337-31.313 84.304 0 125.855 41.55 138.5 137.295l-79.488 13.249c-3.613-27.7-7.225-41.55-13.85-52.991-9.635-16.861-24.69-25.894-43.959-25.894-43.957 0-65.034 43.356-65.034 136.694 0 92.734 20.474 133.682 68.046 133.682 22.28 0 38.539-11.441 47.572-32.517 4.215-10.237 6.022-21.076 7.225-46.97h-60.217v-69.25zM1304.38 131.396v190.287c0 22.28.602 28.303 3.012 33.722 4.215 10.237 12.043 14.452 25.892 14.452 16.862 0 27.701-6.624 32.519-21.076 3.612-9.032 4.215-19.27 4.215-65.637V131.396h82.498v296.872h-77.68v-40.346c-22.883 36.733-38.54 46.367-77.08 46.367-28.903 0-49.98-9.032-62.023-26.495-11.442-16.861-13.851-31.313-13.851-83.702V131.396zM1650.023 220.518c-9.635-28.905-22.28-40.346-43.357-40.346-15.657 0-25.893 10.237-25.893 25.893 0 19.27 8.43 25.894 49.378 40.346 37.937 13.248 46.368 17.463 60.218 28.904 18.065 15.055 27.7 36.733 27.7 62.025 0 57.809-45.765 96.95-112.606 96.95-34.926 0-65.035-10.237-84.305-28.302-15.657-14.452-22.28-30.109-27.097-59.615l65.636-10.84c6.625 30.11 21.678 43.959 47.572 43.959 20.474 0 32.517-10.236 32.517-27.7 0-19.27-8.43-26.496-47.572-38.54-62.626-20.473-89.12-48.173-89.12-93.336 0-56.002 43.356-94.542 105.38-94.542 28.301 0 52.99 9.033 71.055 25.894 15.055 13.85 22.282 25.893 29.507 51.185zM1853.555 37.456v93.94h54.196v65.035h-54.196v108.993c0 39.744.603 44.562 7.227 51.787 5.42 6.022 14.452 8.43 28.904 8.43 7.226 0 9.033 0 22.28-.602v63.229c-21.677 4.817-33.721 6.021-49.98 6.021-36.13 0-62.025-11.44-75.875-33.12-10.838-17.462-13.247-31.313-13.247-86.713V196.431h-33.12v-65.035h37.335l6.624-87.917z"/>
  </g>
</svg>